HIERARCHY
ROOT Hips
{
	OFFSET 0.000000 0.000000 0.000000 
	CHANNELS 6 Xposition Yposition Zposition Zrotation Yrotation Xrotation
	JOINT LHipJoint
	{
		OFFSET 0.000000 0.000000 0.000000 
		CHANNELS 3 Zrotation Yrotation Xrotation
		JOINT LeftUpLeg
		{
			OFFSET 0.098321 -0.116109 0.039864 
			CHANNELS 3 Zrotation Yrotation Xrotation
			JOINT LeftLeg
			{
				OFFSET 0.161239 -0.442999 0.000000 
				CHANNELS 3 Zrotation Yrotation Xrotation
				JOINT LeftFoot
				{
					OFFSET 0.164996 -0.453322 0.000000 
					CHANNELS 3 Zrotation Yrotation Xrotation
					JOINT LeftToeBase
					{
						OFFSET 0.010540 -0.028957 0.132994 
						CHANNELS 3 Zrotation Yrotation Xrotation
						End Site
						{
							OFFSET 0.000000 -0.000000 0.068574 
						}
					}
				}
			}
		}
	}
	JOINT RHipJoint
	{
		OFFSET 0.000000 0.000000 0.000000 
		CHANNELS 3 Zrotation Yrotation Xrotation
		JOINT RightUpLeg
		{
			OFFSET -0.097504 -0.116109 0.039865 
			CHANNELS 3 Zrotation Yrotation Xrotation
			JOINT RightLeg
			{
				OFFSET -0.158904 -0.436585 0.000000 
				CHANNELS 3 Zrotation Yrotation Xrotation
				JOINT RightFoot
				{
					OFFSET -0.166119 -0.456410 0.000000 
					CHANNELS 3 Zrotation Yrotation Xrotation
					JOINT RightToeBase
					{
						OFFSET -0.011522 -0.031656 0.135198 
						CHANNELS 3 Zrotation Yrotation Xrotation
						End Site
						{
							OFFSET -0.000000 -0.000000 0.069862 
						}
					}
				}
			}
		}
	}
	JOINT LowerBack
	{
		OFFSET 0.000000 0.000000 0.000000 
		CHANNELS 3 Zrotation Yrotation Xrotation
		JOINT Spine
		{
			OFFSET -0.000085 0.120508 -0.018524 
			CHANNELS 3 Zrotation Yrotation Xrotation
			JOINT Spine1
			{
				OFFSET -0.000330 0.122639 -0.001830 
				CHANNELS 3 Zrotation Yrotation Xrotation
				JOINT Neck
				{
					OFFSET 0.000000 0.000000 0.000000 
					CHANNELS 3 Zrotation Yrotation Xrotation
					JOINT Neck1
					{
						OFFSET -0.000634 0.109741 0.004873 
						CHANNELS 3 Zrotation Yrotation Xrotation
						JOINT Head
						{
							OFFSET 0.003462 0.107782 0.002849 
							CHANNELS 3 Zrotation Yrotation Xrotation
							End Site
							{
								OFFSET 0.001356 0.112474 0.000540 
							}
						}
					}
				}
				JOINT LeftShoulder
				{
					OFFSET 0.000000 0.000000 0.000000 
					CHANNELS 3 Zrotation Yrotation Xrotation
					JOINT LeftArm
					{
						OFFSET 0.197682 0.080798 -0.041080 
						CHANNELS 3 Zrotation Yrotation Xrotation
						JOINT LeftForeArm
						{
							OFFSET 0.345189 -0.000000 -0.000000 
							CHANNELS 3 Zrotation Yrotation Xrotation
							JOINT LeftHand
							{
								OFFSET 0.224172 -0.000000 -0.000000 
								CHANNELS 3 Zrotation Yrotation Xrotation
								JOINT LeftFingerBase
								{
									OFFSET 0.000000 0.000000 0.000000 
									CHANNELS 3 Zrotation Yrotation Xrotation
									JOINT LeftHandIndex1
									{
										OFFSET 0.033526 -0.000000 -0.000000 
										CHANNELS 3 Zrotation Yrotation Xrotation
										End Site
										{
											OFFSET 0.027029 -0.000000 -0.000000 
										}
									}
								}
								JOINT LThumb
								{
									OFFSET 0.000000 0.000000 0.000000 
									CHANNELS 3 Zrotation Yrotation Xrotation
									End Site
									{
										OFFSET 0.027442 -0.000000 0.027442 
									}
								}
							}
						}
					}
				}
				JOINT RightShoulder
				{
					OFFSET 0.000000 0.000000 0.000000 
					CHANNELS 3 Zrotation Yrotation Xrotation
					JOINT RightArm
					{
						OFFSET -0.192685 0.089610 -0.033079 
						CHANNELS 3 Zrotation Yrotation Xrotation
						JOINT RightForeArm
						{
							OFFSET -0.365487 -0.000000 0.000000 
							CHANNELS 3 Zrotation Yrotation Xrotation
							JOINT RightHand
							{
								OFFSET -0.226698 -0.000000 -0.000000 
								CHANNELS 3 Zrotation Yrotation Xrotation
								JOINT RightFingerBase
								{
									OFFSET 0.000000 0.000000 0.000000 
									CHANNELS 3 Zrotation Yrotation Xrotation
									JOINT RightHandIndex1
									{
										OFFSET -0.040658 -0.000000 -0.000000 
										CHANNELS 3 Zrotation Yrotation Xrotation
										End Site
										{
											OFFSET -0.032779 -0.000000 -0.000000 
										}
									}
								}
								JOINT RThumb
								{
									OFFSET 0.000000 0.000000 0.000000 
									CHANNELS 3 Zrotation Yrotation Xrotation
									End Site
									{
										OFFSET -0.033279 -0.000000 0.033279 
									}
								}
							}
						}
					}
				}
			}
		}
	}
}
MOTION
Frames: 7
Frame Time: 0.033333
0.000000 1.041387 0.000000 -3.590383 -0.474417 5.457658 0.000000 0.000000 0.000000 -9.583112 -18.322332 -38.107250 8.042027 15.768218 52.055588 -0.011778 -4.620696 3.526381 0.619039 -4.798594 -13.374134 0.000000 0.000000 0.000000 28.391363 -1.507075 23.956478 -3.850240 -4.814179 19.539568 -2.066611 -20.935328 27.746544 -0.930814 -5.768135 16.227543 3.126369 1.138788 14.804651 -0.614008 1.990335 0.022684 -2.822141 0.814713 -8.139354 -1.760518 -1.458628 -2.826909 3.914069 -1.647911 -9.801315 1.582399 -0.858036 -2.583274 0.000000 0.000000 0.000000 -86.343056 33.486942 34.329735 125.612122 -54.573872 -90.272743 0.000000 0.000000 -30.229958 38.314087 9.620385 7.547150 -7.125000 0.000000 0.000000 10.208396 41.957211 -0.729662 0.000000 0.000000 0.000000 77.691597 -1.190853 48.216911 -125.653488 53.237801 -90.023491 0.000000 0.000000 -4.564329 -35.779148 26.754047 -18.012877 7.125000 0.000000 0.000000 -3.330429 1.847841 -3.460331 
0.000000 1.041387 0.000000 -4.302661 1.522905 6.048536 0.000000 0.000000 0.000000 -8.283437 -20.433489 -34.960957 2.545532 11.589836 31.927197 0.137186 -2.442949 6.128973 0.803336 -5.467261 -15.298847 0.000000 0.000000 0.000000 30.306747 -2.199586 23.050579 -3.868134 -7.510226 26.270023 -2.951442 -12.984837 30.191002 -1.362653 -7.696974 21.691456 4.378180 0.918291 13.866585 -0.598616 1.859460 0.067428 -3.470769 0.715230 -7.538315 -1.133893 -1.845139 -3.465351 3.101924 -2.222586 -10.183004 1.217307 -1.140141 -2.594182 0.000000 0.000000 0.000000 -87.028900 33.385952 33.266151 126.182556 -54.425716 -90.748550 0.000000 0.000000 -28.239861 35.438595 7.687882 5.635352 -7.125000 0.000000 0.000000 7.594908 39.371151 -0.812317 0.000000 0.000000 0.000000 76.909187 -2.543934 49.328793 -125.447495 53.555862 -89.912308 0.000000 0.000000 -3.960106 -35.216457 27.267031 -17.955336 7.125000 0.000000 0.000000 -2.899718 2.244799 -3.031681 
0.000000 1.041387 0.000000 -6.068239 0.239127 5.574314 0.000000 0.000000 0.000000 -6.602761 -19.246048 -29.319870 -0.059762 7.135956 17.445206 0.146849 0.535098 4.755564 1.640034 -7.758227 -22.106260 0.000000 0.000000 0.000000 33.240433 -0.009297 20.567078 -5.403028 -12.323273 40.030781 -2.577872 -8.306744 27.834461 -1.351092 -7.608313 21.444866 4.500991 1.589294 13.496017 0.098676 2.728585 1.503073 -2.936996 1.237647 -5.717776 -0.886968 -1.753750 -6.323693 2.710680 -2.118561 -11.000093 1.015815 -1.076747 -2.360690 0.000000 0.000000 0.000000 -87.479744 28.919361 33.659859 125.728485 -54.579460 -90.378448 0.000000 0.000000 -27.417065 35.222610 7.199579 5.214855 -7.125000 0.000000 0.000000 7.363318 38.745190 -0.938973 0.000000 0.000000 0.000000 76.385178 -2.688314 50.029179 -121.385300 55.327335 -86.694717 0.000000 0.000000 -2.362884 -35.378166 23.734310 -15.948194 7.125000 0.000000 0.000000 -3.711907 -1.694943 -3.605431 
0.000000 1.041387 0.000000 -4.790016 1.202749 4.593191 0.000000 0.000000 0.000000 -11.373987 -15.265008 -26.120075 -0.202357 5.796175 14.220318 0.147613 3.205345 4.989456 1.726231 -8.006794 -22.844976 0.000000 0.000000 0.000000 32.509113 0.014491 14.236877 -9.478923 -17.470320 58.850143 -2.266603 -12.266653 26.666718 -0.997131 -6.351252 17.819576 3.369602 1.030596 14.699552 -0.783633 1.802210 1.956717 -3.088524 0.805763 -5.997737 -0.395443 -1.497161 -5.270235 3.517735 -1.681936 -12.141582 1.218724 -0.915752 -2.943599 0.000000 0.000000 0.000000 -85.073898 24.172970 35.830078 124.860321 -54.861107 -89.667747 0.000000 0.000000 -28.458668 36.704620 9.384676 6.980358 -7.125000 0.000000 0.000000 8.744329 41.492336 -0.705028 0.000000 0.000000 0.000000 77.860962 -5.137195 49.760357 -113.519318 57.756405 -80.222939 0.000000 0.000000 -2.205962 -36.534176 23.410589 -16.407753 7.125000 0.000000 0.000000 -4.468195 -1.730384 -4.348280 
0.000000 1.041387 0.000000 -1.222894 2.313372 3.047469 0.000000 0.000000 0.000000 -18.746613 -10.687065 -24.024185 1.064849 7.936295 21.491629 -0.099323 -6.184107 3.583848 0.496428 -4.441761 -12.332890 0.000000 0.000000 0.000000 27.142797 -1.491120 6.232577 -15.502717 -20.723167 78.976601 -2.157533 -17.830360 27.344776 -1.934170 -8.917790 25.436687 -0.356687 0.601999 16.040884 -1.750241 0.577235 2.015762 -1.784752 0.281080 -6.822598 -0.137818 -1.274172 -3.566576 3.541991 -1.389511 -11.407671 1.189132 -0.788658 -3.004807 0.000000 0.000000 0.000000 -82.180954 18.791779 39.998489 124.667259 -54.931648 -89.511650 0.000000 0.000000 -29.487770 39.169033 11.532173 9.231260 -7.125000 0.000000 0.000000 11.141841 44.425274 -0.190884 0.000000 0.000000 0.000000 78.534950 -9.135475 48.447338 -101.393631 59.906475 -69.925644 0.000000 0.000000 -2.642340 -34.863785 26.325871 -17.176910 7.125000 0.000000 0.000000 -2.900185 1.079174 -2.961731 
0.000000 1.041387 0.000000 0.758509 2.767182 1.118191 0.000000 0.000000 0.000000 -21.972679 -10.445689 -21.948885 3.740250 11.895275 35.221645 0.012330 -8.394011 -6.304439 0.350857 -3.802782 -10.522379 0.000000 0.000000 0.000000 21.719206 -2.885218 -0.875918 -20.841623 -20.402189 93.056213 -0.921248 -20.600864 21.062199 -1.173114 -6.884150 19.370674 -2.406927 0.297925 19.012054 -1.940830 -0.283302 1.966818 -0.658977 -0.083023 -8.532640 -0.447684 -1.181300 -1.315684 3.172464 -1.292339 -11.513154 1.149102 -0.735177 -3.457102 0.000000 0.000000 0.000000 -80.536339 11.966039 43.576180 126.408005 -54.348412 -90.932236 0.000000 0.000000 -28.962761 35.877529 10.851393 7.761334 -7.125000 0.000000 0.000000 8.027755 43.150284 -0.362018 0.000000 0.000000 0.000000 79.094917 -13.095761 45.792770 -90.657082 60.173759 -60.591923 0.000000 0.000000 -1.367327 -36.971806 28.193998 -19.585426 7.125000 0.000000 0.000000 -3.720345 3.820316 -3.971504 
0.000000 1.041387 0.000000 4.344100 3.025400 2.015300 0.000000 0.000000 0.000000 -26.974199 -11.324100 -17.868601 4.897400 13.267300 40.377499 0.648300 -7.182100 -14.458500 0.325000 -3.664300 -10.134100 0.000000 0.000000 0.000000 13.968600 -2.277200 -13.967000 -25.643299 -19.218700 106.709198 -0.966100 -18.329700 20.362101 -2.273700 -9.414200 27.099800 -6.000600 -0.002900 18.961901 -2.643700 -1.448800 2.569500 0.916900 -0.556700 -7.764400 -1.948900 -1.011400 -3.166100 4.203800 -0.956200 -12.327700 1.738700 -0.530300 -3.401000 0.000000 -0.000000 0.000000 -79.387100 -0.892300 45.593399 126.989403 -54.139801 -91.403397 -0.000000 0.000000 -27.961100 33.685501 10.547900 6.956700 -7.125000 0.000000 -0.000000 5.999900 42.515701 -0.369200 0.000000 -0.000000 0.000000 80.638199 -15.339600 40.985500 -76.862602 59.337700 -48.647999 0.000000 0.000000 1.345900 -38.319500 27.171900 -19.844601 7.125000 -0.000000 -0.000000 -4.722100 3.114800 -4.988400 
